<svg width="200" height="230" viewBox="0 0 200 230" fill="none" xmlns="http://www.w3.org/2000/svg">
<rect width="185" height="185" rx="16" fill="#CDEDFE"/>
<path d="M91.9999 165.5C108.5 165 114.5 186 124 201C131.6 213 146.5 225.333 153 230H163L166 204L151 149L128.5 108.5C105 107.5 57.2 105.6 54.0002 106C50.0004 106.5 47.5 107 47.5 109.5C47.5 111.5 51.8335 112.333 54.0002 112.5C57.3335 116 62.0002 123.2 54.0002 124C44.0002 125 38.5002 130 40.5002 135C42.1002 139 50.1669 142 54.0002 143C56.0001 145.666 58.8999 151.6 54.4999 154C48.9999 157 50.9999 160.5 54.4999 162.5C57.9999 164.5 75.4999 166 91.9999 165.5Z" fill="#FEBFC0"/>
<rect x="53" y="17" width="72" height="141" rx="8" fill="white"/>
<path d="M79.1378 103.252H78.5258V106H77.8358V103.252H77.4458V102.694H77.8358V102.46C77.8358 102.08 77.9358 101.804 78.1358 101.632C78.3398 101.456 78.6578 101.368 79.0898 101.368V101.938C78.8818 101.938 78.7358 101.978 78.6518 102.058C78.5678 102.134 78.5258 102.268 78.5258 102.46V102.694H79.1378V103.252ZM82.7379 102.694V106H82.0539V105.61C81.9459 105.746 81.8039 105.854 81.6279 105.934C81.4559 106.01 81.2719 106.048 81.0759 106.048C80.8159 106.048 80.5819 105.994 80.3739 105.886C80.1699 105.778 80.0079 105.618 79.8879 105.406C79.7719 105.194 79.7139 104.938 79.7139 104.638V102.694H80.3919V104.536C80.3919 104.832 80.4659 105.06 80.6139 105.22C80.7619 105.376 80.9639 105.454 81.2199 105.454C81.4759 105.454 81.6779 105.376 81.8259 105.22C81.9779 105.06 82.0539 104.832 82.0539 104.536V102.694H82.7379ZM85.3084 102.64C85.5684 102.64 85.8004 102.694 86.0044 102.802C86.2124 102.91 86.3744 103.07 86.4904 103.282C86.6064 103.494 86.6644 103.75 86.6644 104.05V106H85.9864V104.152C85.9864 103.856 85.9124 103.63 85.7644 103.474C85.6164 103.314 85.4144 103.234 85.1584 103.234C84.9024 103.234 84.6984 103.314 84.5464 103.474C84.3984 103.63 84.3244 103.856 84.3244 104.152V106H83.6404V102.694H84.3244V103.072C84.4364 102.936 84.5784 102.83 84.7504 102.754C84.9264 102.678 85.1124 102.64 85.3084 102.64ZM87.3089 104.332C87.3089 104 87.3769 103.706 87.5129 103.45C87.6529 103.194 87.8409 102.996 88.0769 102.856C88.3169 102.712 88.5829 102.64 88.8749 102.64C89.0909 102.64 89.3029 102.688 89.5109 102.784C89.7229 102.876 89.8909 103 90.0149 103.156V101.56H90.7049V106H90.0149V105.502C89.9029 105.662 89.7469 105.794 89.5469 105.898C89.3509 106.002 89.1249 106.054 88.8689 106.054C88.5809 106.054 88.3169 105.982 88.0769 105.838C87.8409 105.69 87.6529 105.486 87.5129 105.226C87.3769 104.962 87.3089 104.664 87.3089 104.332ZM90.0149 104.344C90.0149 104.116 89.9669 103.918 89.8709 103.75C89.7789 103.582 89.6569 103.454 89.5049 103.366C89.3529 103.278 89.1889 103.234 89.0129 103.234C88.8369 103.234 88.6729 103.278 88.5209 103.366C88.3689 103.45 88.2449 103.576 88.1489 103.744C88.0569 103.908 88.0109 104.104 88.0109 104.332C88.0109 104.56 88.0569 104.76 88.1489 104.932C88.2449 105.104 88.3689 105.236 88.5209 105.328C88.6769 105.416 88.8409 105.46 89.0129 105.46C89.1889 105.46 89.3529 105.416 89.5049 105.328C89.6569 105.24 89.7789 105.112 89.8709 104.944C89.9669 104.772 90.0149 104.572 90.0149 104.344ZM91.9513 102.256C91.8273 102.256 91.7233 102.214 91.6393 102.13C91.5553 102.046 91.5133 101.942 91.5133 101.818C91.5133 101.694 91.5553 101.59 91.6393 101.506C91.7233 101.422 91.8273 101.38 91.9513 101.38C92.0713 101.38 92.1733 101.422 92.2573 101.506C92.3413 101.59 92.3833 101.694 92.3833 101.818C92.3833 101.942 92.3413 102.046 92.2573 102.13C92.1733 102.214 92.0713 102.256 91.9513 102.256ZM92.2873 102.694V106H91.6033V102.694H92.2873ZM94.8534 102.64C95.1134 102.64 95.3454 102.694 95.5494 102.802C95.7574 102.91 95.9194 103.07 96.0354 103.282C96.1514 103.494 96.2094 103.75 96.2094 104.05V106H95.5314V104.152C95.5314 103.856 95.4574 103.63 95.3094 103.474C95.1614 103.314 94.9594 103.234 94.7034 103.234C94.4474 103.234 94.2434 103.314 94.0914 103.474C93.9434 103.63 93.8694 103.856 93.8694 104.152V106H93.1854V102.694H93.8694V103.072C93.9814 102.936 94.1234 102.83 94.2954 102.754C94.4714 102.678 94.6574 102.64 94.8534 102.64ZM98.4138 102.64C98.6698 102.64 98.8958 102.692 99.0918 102.796C99.2918 102.896 99.4478 103.022 99.5598 103.174V102.694H100.25V106.054C100.25 106.358 100.186 106.628 100.058 106.864C99.9298 107.104 99.7438 107.292 99.4998 107.428C99.2598 107.564 98.9718 107.632 98.6358 107.632C98.1878 107.632 97.8158 107.526 97.5198 107.314C97.2238 107.106 97.0558 106.822 97.0158 106.462H97.6938C97.7458 106.634 97.8558 106.772 98.0238 106.876C98.1958 106.984 98.3998 107.038 98.6358 107.038C98.9118 107.038 99.1338 106.954 99.3018 106.786C99.4738 106.618 99.5598 106.374 99.5598 106.054V105.502C99.4438 105.658 99.2858 105.79 99.0858 105.898C98.8898 106.002 98.6658 106.054 98.4138 106.054C98.1258 106.054 97.8618 105.982 97.6218 105.838C97.3858 105.69 97.1978 105.486 97.0578 105.226C96.9218 104.962 96.8538 104.664 96.8538 104.332C96.8538 104 96.9218 103.706 97.0578 103.45C97.1978 103.194 97.3858 102.996 97.6218 102.856C97.8618 102.712 98.1258 102.64 98.4138 102.64ZM99.5598 104.344C99.5598 104.116 99.5118 103.918 99.4158 103.75C99.3238 103.582 99.2018 103.454 99.0498 103.366C98.8978 103.278 98.7338 103.234 98.5578 103.234C98.3818 103.234 98.2178 103.278 98.0658 103.366C97.9138 103.45 97.7898 103.576 97.6938 103.744C97.6018 103.908 97.5558 104.104 97.5558 104.332C97.5558 104.56 97.6018 104.76 97.6938 104.932C97.7898 105.104 97.9138 105.236 98.0658 105.328C98.2218 105.416 98.3858 105.46 98.5578 105.46C98.7338 105.46 98.8978 105.416 99.0498 105.328C99.2018 105.24 99.3238 105.112 99.4158 104.944C99.5118 104.772 99.5598 104.572 99.5598 104.344Z" fill="#515151"/>
<rect x="73" y="63" width="32" height="32" rx="16" fill="#F9991C"/>
<path d="M84.057 73.1805C83.1219 73.1875 83.1078 73.1898 83.0539 73.2391L83 73.2883V77.4109V81.5336L83.0586 81.5898L83.1148 81.6484H83.6891C84.2984 81.6484 84.357 81.6391 84.4039 81.5383C84.4227 81.4984 84.4297 80.9922 84.4297 79.832V78.1797H85.1867H85.9414L86.5508 79.8695C87.0336 81.2078 87.1719 81.5688 87.2164 81.6063C87.2703 81.6484 87.3125 81.6508 87.8938 81.6438C88.5125 81.6367 88.5125 81.6367 88.557 81.5805C88.5805 81.55 88.6016 81.4914 88.6016 81.4516C88.6016 81.4094 88.3016 80.575 87.9359 79.5977L87.268 77.8164L87.5094 77.5703C87.943 77.1297 88.1422 76.7734 88.2617 76.2344C88.3133 75.993 88.3344 75.4234 88.2969 75.1773C88.2148 74.6125 87.957 74.1461 87.5492 73.8156C87.1742 73.5133 86.75 73.3398 86.1547 73.2438C85.9766 73.2156 85.0508 73.1547 85.0156 73.1711C85.0086 73.1734 84.5773 73.1781 84.057 73.1805ZM85.6367 74.4086C86.4547 74.5094 86.8766 74.9383 86.8766 75.6719C86.8766 75.8781 86.8672 75.9461 86.8156 76.0914C86.6445 76.5648 86.2414 76.8625 85.6438 76.9609C85.5617 76.9727 85.257 76.9844 84.9641 76.9844H84.4297V75.6836V74.3828H84.9289C85.2008 74.3828 85.5219 74.3945 85.6367 74.4086Z" fill="#F7F7F7"/>
<path d="M91.8172 76.0586C91.3039 76.1523 90.9477 76.3328 90.5773 76.6891L90.4062 76.8508V76.5602C90.4062 76.1336 90.4531 76.1641 89.7992 76.1641C89.3117 76.1641 89.2625 76.1688 89.2273 76.2063C89.1898 76.2461 89.1875 76.5766 89.1875 80.4906C89.1875 82.8227 89.1969 84.7422 89.2063 84.7586C89.2461 84.8195 89.368 84.8359 89.8086 84.8359C90.2492 84.8359 90.3711 84.8195 90.4109 84.7586C90.4203 84.7422 90.4297 84.0883 90.4297 83.3031V81.8734L90.507 81.9461C90.7297 82.1547 91.0578 82.3352 91.3953 82.4313C91.6484 82.5039 92.0469 82.5461 92.2813 82.5273C93.0148 82.4664 93.5984 82.2039 94.0859 81.7188C94.5805 81.2242 94.8758 80.568 94.9766 79.743C95.0188 79.4031 94.9953 78.6766 94.932 78.3836C94.8289 77.9031 94.6695 77.5141 94.4328 77.1672C94.025 76.5648 93.4344 76.1781 92.7406 76.0563C92.5086 76.0164 92.0492 76.0164 91.8172 76.0586ZM92.5039 77.2352C92.9891 77.3547 93.4484 77.7813 93.6781 78.3227C93.8164 78.6508 93.8609 78.8758 93.8633 79.2695C93.8633 79.4852 93.8516 79.6703 93.8328 79.75C93.6453 80.5258 93.2398 81.0461 92.6469 81.2758C92.3961 81.3719 92.0656 81.3953 91.8078 81.332C91.0625 81.1539 90.493 80.4133 90.4086 79.5133C90.3148 78.5125 90.8328 77.5656 91.6367 77.275C91.9203 77.1719 92.1992 77.1602 92.5039 77.2352Z" fill="#F7F7F7"/>
<rect x="53" y="17" width="72" height="141" rx="6" stroke="#04549F" stroke-width="4"/>
<path d="M179.5 199C183.5 209.8 194.833 224 200 230H163C158.667 225.5 147.8 215.3 139 208.5C128 200 118.5 180 117 175.5C115.5 171 103.5 156 92.5003 149C81.5003 142 90.0003 137.5 97.0003 138C104 138.5 120 145 136 156C152 167 145.5 154 140.5 140.5C136.5 129.7 126.167 112.667 121.5 105.5C117.667 97.6665 113 83.3998 125 88.9998C140 95.9998 154 124.5 163 143C172 161.5 174.5 185.5 179.5 199Z" fill="#FFD9D9"/>
</svg>
